<svg xmlns="http://www.w3.org/2000/svg" width="41.646" height="39.82" viewBox="0 0 41.646 39.82">
  <g id="company" transform="translate(0.1 500.403)">
    <path id="Path_36" data-name="Path 36" d="M10.928-500.27a1.87,1.87,0,0,0-1.465,1.093c-.13.283-.154.558-.154,2.364v2.032l-1.392.461a17.266,17.266,0,0,0-1.732.656,3.072,3.072,0,0,0-1.117,1.239l-.17.372L4.873-481.19l-.016,10.871H4.59a5.1,5.1,0,0,0-1.838.543A5.345,5.345,0,0,0,.534-467.55C.073-466.587,0-466.1,0-463.883c0,1.724.024,1.983.154,2.275a1.516,1.516,0,0,0,1.06.834c.51.122,38.508.122,39.018,0a1.516,1.516,0,0,0,1.06-.834c.138-.3.154-.567.154-2.76,0-2.647-.032-2.938-.47-3.829a4.54,4.54,0,0,0-1.6-1.651,4.206,4.206,0,0,0-1.991-.47h-.631v-5.124c0-5.553,0-5.577-.445-6.152a2.133,2.133,0,0,0-.631-.5l-.413-.2H24.2v-15.178l.712.7c.389.38,1.449,1.417,2.364,2.291a23.118,23.118,0,0,1,1.8,1.854c.13.235.138.648.146,4.25v3.991l.2.194a.559.559,0,0,0,.842.016l.178-.194-.024-4.161L30.4-492.7l-.219-.445c-.186-.38-.72-.939-3.189-3.319-1.627-1.578-3.068-2.922-3.189-2.987-.219-.105-.526-.016-5.416,1.627l-5.189,1.732v-1.222a6.769,6.769,0,0,0-.121-1.627A1.869,1.869,0,0,0,10.928-500.27Zm.607,1.263a.666.666,0,0,1,.356.372,9.615,9.615,0,0,1,.089,1.611v1.352l-.729.243-.729.251V-496.9c0-1.611.008-1.74.162-1.935a.688.688,0,0,1,.348-.243,1,1,0,0,0,.2-.049A1.635,1.635,0,0,1,11.535-499.007Zm11.454,2.574v1.651l-3.416,1.141c-7.488,2.5-10.054,3.392-10.159,3.537a.587.587,0,0,0,.453.923c.13,0,3.108-.963,6.622-2.145s6.4-2.145,6.444-2.145a10.233,10.233,0,0,1,.057,1.53v1.53l-3.9,1.3c-7.334,2.445-9.56,3.222-9.673,3.376a.587.587,0,0,0,.453.923c.13,0,3.108-.963,6.63-2.145s6.419-2.145,6.444-2.145a12.733,12.733,0,0,1,.049,1.53v1.53l-4.266,1.425c-7.261,2.42-9.2,3.1-9.309,3.254a.586.586,0,0,0,.453.923c.13,0,3.108-.963,6.63-2.145s6.411-2.145,6.435-2.145a10.167,10.167,0,0,1,.057,1.522v1.53L16.3-479.433c-4.655,1.562-6.743,2.3-6.84,2.412a.583.583,0,0,0,.421.955c.121,0,3.1-.963,6.614-2.145s6.411-2.145,6.444-2.145a9.791,9.791,0,0,1,.057,1.5c0,1.368-.016,1.5-.154,1.57-.081.049-1.943.688-4.145,1.425s-4.072,1.392-4.169,1.457a.541.541,0,0,0-.154.745c.291.445.194.469,4.493-.98,2.194-.737,4.015-1.344,4.056-1.344s.065,2.963.057,7.018l-.024,7.026-2.607.024-2.615.016v-3.214c0-1.862-.032-3.343-.081-3.505a1.4,1.4,0,0,0-1.449-.915c-.85.194-5.95,1.651-6.128,1.748a1.465,1.465,0,0,0-.364.267c-.348.4-.356.478-.4,3.068l-.04,2.509H6.112l-.024-14.854-.016-14.862.178-.356a1.828,1.828,0,0,1,.4-.51c.121-.089,3.2-1.158,6.84-2.38s7.253-2.437,8.006-2.7,1.4-.478,1.441-.478A11.676,11.676,0,0,1,22.99-496.433Zm12.337,15.6.21.251v10.548l-.413.243a4.18,4.18,0,0,0-2.016,3.618v.47H24.2v-15.38H35.116ZM4.857-467.4v1.7H1.214l.049-.227a3.979,3.979,0,0,1,1.174-2.153,3.7,3.7,0,0,1,2.2-1.012l.219-.008Zm33.821-1.433a2.75,2.75,0,0,1,1.538,2.461l.04.672H34.3l.049-.64a2.967,2.967,0,0,1,.769-1.894,2.6,2.6,0,0,1,2.323-.842A2.375,2.375,0,0,1,38.678-468.837ZM16.5-465.089l-.024,3.149H14.126l-.024-2.882-.016-2.874,1.149-.332a6.841,6.841,0,0,1,1.222-.275C16.489-468.271,16.506-466.83,16.5-465.089Zm-3.627.478v2.712H10.523l.016-2.4.024-2.412,1.052-.3c.583-.162,1.1-.3,1.158-.3A10.733,10.733,0,0,1,12.871-464.612ZM4.857-463.2v1.3H3.246a12.018,12.018,0,0,1-1.821-.081l-.21-.081v-2.429H4.857Zm28.251,0v1.3H24.2v-2.59h8.9Zm7.124-.146a6.358,6.358,0,0,1-.081,1.279c-.065.105-.478.121-2.93.121H34.363l-.024-1.279-.024-1.271h5.917Z" transform="translate(0)" fill="#fff" stroke="#fff" stroke-width="0.2"/>
    <path id="Path_37" data-name="Path 37" d="M116.54-170.479a4.959,4.959,0,0,0-1.352.575.593.593,0,0,0,.437.931,13.794,13.794,0,0,0,2.777-.947.757.757,0,0,0,.105-.4.559.559,0,0,0-.55-.583A12.813,12.813,0,0,0,116.54-170.479Z" transform="translate(-105.766 -302.722)" fill="#fff" stroke="#fff" stroke-width="0.2"/>
    <path id="Path_38" data-name="Path 38" d="M319.478-244.814c-.421.283-.478.469-.478,1.579s.073,1.336.486,1.587c.2.113.615.129,3.505.129h3.27l.275-.186c.4-.267.494-.639.461-1.676-.04-.979-.154-1.287-.583-1.489-.243-.113-.68-.13-3.473-.13C319.753-245,319.753-245,319.478-244.814Zm6.322,1.554v.526h-5.586v-1.052H325.8Z" transform="translate(-293.177 -234.628)" fill="#fff" stroke="#fff" stroke-width="0.2"/>
    <path id="Path_39" data-name="Path 39" d="M319.451-187.814a1.368,1.368,0,0,0-.372.38,6.449,6.449,0,0,0,.016,2.428c.251.486.275.486,3.918.486h3.311l.251-.21c.332-.283.437-.712.4-1.692-.04-.939-.162-1.247-.583-1.449-.243-.113-.68-.13-3.473-.13C319.726-188,319.726-188,319.451-187.814Zm6.322,1.554v.526h-5.586v-1.052h5.586Z" transform="translate(-293.151 -287.014)" fill="#fff" stroke="#fff" stroke-width="0.2"/>
    <path id="Path_40" data-name="Path 40" d="M319.478-129.862c-.4.251-.478.486-.478,1.579,0,1.117.057,1.3.486,1.587.275.178.332.186,1.6.162l1.327-.024.275-.3.275-.308v-1.052c0-1.708-.081-1.781-2-1.781C319.931-130,319.648-129.968,319.478-129.862Zm2.275,1.6v.526h-1.538v-1.052h1.538Z" transform="translate(-293.177 -340.319)" fill="#fff" stroke="#fff" stroke-width="0.2"/>
  </g>
</svg>
